<?xml version="1.0" encoding="utf-8"?>
<!-- Generator: Adobe Illustrator 27.1.1, SVG Export Plug-In . SVG Version: 6.00 Build 0)  -->
<svg version="1.1" id="Layer_1" xmlns="http://www.w3.org/2000/svg" xmlns:xlink="http://www.w3.org/1999/xlink" x="0px" y="0px"
	 viewBox="0 0 16 16" style="enable-background:new 0 0 16 16;" xml:space="preserve">
<style type="text/css">
	.st0{fill-rule:evenodd;clip-rule:evenodd;}
</style>
<path class="st0" d="M4.9,2.8c-0.2-0.2-0.5-0.2-0.7,0c0,0,0,0,0,0l-4,3.5C0,6.5,0,6.8,0.1,6.9c0.2,0.2,0.5,0.2,0.7,0L4,4.2v8.6
	C4,14,5.1,15,6.5,15h8c0.3,0,0.5-0.2,0.5-0.4s-0.2-0.4-0.5-0.4h-8c-0.8,0-1.5-0.6-1.5-1.3V4.2l3.1,2.8c0.2,0.2,0.5,0.2,0.7,0
	C9,6.8,9,6.5,8.9,6.3C8.9,6.3,4.9,2.8,4.9,2.8z"/>
</svg>
