<?xml version="1.0" encoding="utf-8"?>
<!-- Generator: Adobe Illustrator 27.1.1, SVG Export Plug-In . SVG Version: 6.00 Build 0)  -->
<svg version="1.1" id="Layer_1" xmlns="http://www.w3.org/2000/svg" xmlns:xlink="http://www.w3.org/1999/xlink" x="0px" y="0px"
	 viewBox="0 0 24 24" enable-background="new 0 0 24 24" xml:space="preserve">
<path d="M18,4.6L18,4.6c-0.7,0-1.4,0.6-1.4,1.4s0.6,1.4,1.4,1.4c0.7,0,1.4-0.6,1.4-1.4S18.8,4.6,18,4.6L18,4.6z M23.2,7.4
	c0-0.9-0.2-1.9-0.5-2.7c-0.3-0.8-0.7-1.4-1.3-2c-0.6-0.6-1.2-1-2-1.3c-0.9-0.3-1.8-0.5-2.7-0.5c-1.2-0.1-1.6-0.1-4.6-0.1
	s-3.4,0-4.6,0.1C6.4,0.8,5.5,1,4.6,1.3c-0.8,0.3-1.4,0.7-2,1.3c-0.6,0.6-1,1.2-1.3,2C1,5.5,0.8,6.4,0.8,7.4C0.7,8.6,0.7,8.9,0.7,12
	s0,3.4,0.1,4.6c0,0.9,0.2,1.9,0.5,2.7c0.3,0.8,0.7,1.4,1.3,2c0.6,0.6,1.2,1,2,1.3c0.9,0.3,1.8,0.5,2.7,0.5c1.2,0.1,1.6,0.1,4.6,0.1
	s3.4,0,4.6-0.1c0.9,0,1.9-0.2,2.7-0.5c0.8-0.3,1.4-0.7,2-1.3c0.6-0.6,1-1.2,1.3-2c0.3-0.9,0.5-1.8,0.5-2.7c0-1.2,0.1-1.6,0.1-4.6
	S23.3,8.6,23.2,7.4z M21.2,16.5c0,0.7-0.1,1.4-0.4,2.1c-0.2,0.5-0.5,0.9-0.8,1.3c-0.4,0.4-0.8,0.7-1.3,0.8c-0.7,0.2-1.4,0.4-2.1,0.4
	c-1.1,0.1-1.5,0.1-4.5,0.1s-3.4,0-4.5-0.1c-0.7,0-1.5-0.1-2.2-0.3c-0.5-0.2-0.9-0.5-1.2-0.8c-0.4-0.4-0.7-0.8-0.8-1.3
	C3,18,2.9,17.2,2.8,16.5c0-1.1-0.1-1.5-0.1-4.5s0-3.4,0.1-4.5C2.8,6.8,3,6,3.2,5.4c0.2-0.5,0.5-0.9,0.9-1.2c0.3-0.4,0.8-0.7,1.2-0.9
	C6,3,6.8,2.8,7.5,2.8C8.6,2.8,9,2.8,12,2.8s3.4,0,4.5,0.1c0.7,0,1.4,0.1,2.1,0.4c0.5,0.2,1,0.5,1.3,0.9c0.4,0.3,0.7,0.8,0.8,1.2
	C21,6,21.2,6.8,21.2,7.5c0.1,1.1,0.1,1.5,0.1,4.5S21.2,15.4,21.2,16.5z M12,6.2c-3.2,0-5.8,2.6-5.8,5.8c0,3.2,2.6,5.8,5.8,5.8
	c3.2,0,5.8-2.6,5.8-5.8C17.8,8.8,15.2,6.2,12,6.2C12,6.2,12,6.2,12,6.2z M12,15.8c-2.1,0-3.8-1.7-3.8-3.8S9.9,8.2,12,8.2
	s3.8,1.7,3.8,3.8l0,0C15.8,14.1,14.1,15.8,12,15.8z"/>
</svg>
