<?xml version="1.0" encoding="utf-8"?>
<!-- Generator: Adobe Illustrator 27.1.1, SVG Export Plug-In . SVG Version: 6.00 Build 0)  -->
<svg version="1.1" id="Layer_1" xmlns="http://www.w3.org/2000/svg" xmlns:xlink="http://www.w3.org/1999/xlink" x="0px" y="0px"
	 viewBox="0 0 16 16" style="enable-background:new 0 0 16 16;" xml:space="preserve">
<style type="text/css">
	.st0{fill:none;stroke:#000000;stroke-miterlimit:10;}
</style>
<path d="M11,9.7c1.4-1.9,1-4.7-0.9-6.1S5.4,2.7,4,4.6s-1,4.7,0.9,6.1c1.5,1.1,3.6,1.1,5.1,0l0,0l0.1,0.1l2.5,2.5
	c0.3,0.3,0.7,0.3,0.9,0c0.3-0.3,0.3-0.7,0-0.9L11,9.7C11,9.8,11,9.8,11,9.7L11,9.7z M11.2,7.2c0,2-1.7,3.7-3.7,3.7S3.8,9.2,3.8,7.2
	s1.7-3.7,3.7-3.7S11.2,5.2,11.2,7.2z"/>
<circle class="st0" cx="7.5" cy="7.2" r="3.4"/>
</svg>
